#!OML:ASF F:\VICON\USERDATA\INSTALL\rory7\rory7.ASF
:FULLY-SPECIFIED
:DEGREES
798
root 0.860509 34.3462 -4.24783 -181.387 -25.3773 183.541
lowerback 5.48326 -3.46534 -3.86325
upperback -1.43693 -4.92392 -0.285809
thorax -4.26028 -2.35015 2.29715
lowerneck 7.73382 7.26643 -59.8155
upperneck 11.9163 1.63811 45.6894
head 0.166785 -2.05271 38.6825
rclavicle 6.62947e-014 4.77083e-015
rhumerus -38.2044 24.1569 -86.1121
rradius 115.575
rwrist 42.6923
rhand -54.5308 -418.724
rfingers 7.12502
rthumb -26.9313 273.175
lclavicle 6.62947e-014 4.77083e-015
lhumerus -29.8853 -27.8593 92.4066
lradius 69.4686
lwrist 11.8333
lhand -22.0693 13.3369
lfingers 7.12502
lthumb 4.34183 43.2724
rfemur -0.768759 28.7194 27.5803
rtibia 30.0109
rfoot -12.1962 -2.31933
rtoes -8.31215
lfemur -8.9935 -1.60614 -17.8645
ltibia 31.1882
lfoot -15.7634 12.0378
ltoes 2.48282
799
root 0.832539 34.3442 -4.23665 -181.363 -24.4085 183.517
lowerback 5.36771 -3.41385 -3.99067
upperback -1.33503 -4.85307 -0.24135
thorax -4.07927 -2.31698 2.39492
lowerneck 7.06142 7.05017 -59.7825
upperneck 12.1876 1.78235 45.627
head 0.28724 -1.92374 38.4683
rclavicle -5.84675e-014 8.74653e-015
rhumerus -38.0214 23.2744 -85.3339
rradius 115.54
rwrist 42.4486
rhand -54.9487 -408.004
rfingers 7.12502
rthumb -27.3311 283.958
lclavicle -5.84675e-014 8.74653e-015
lhumerus -30.0344 -28.0365 92.5436
lradius 69.7857
lwrist 11.9075
lhand -23.0774 13.6563
lfingers 7.12502
lthumb 3.3684 43.6094
rfemur -0.926831 28.9165 27.3454
rtibia 30.1343
rfoot -12.079 -1.80144
rtoes -8.96953
lfemur -8.82092 -0.987437 -17.9317
ltibia 31.2088
lfoot -15.9835 12.1273
ltoes 2.84536
800
root 0.8079 34.3414 -4.21461 -181.432 -23.8149 183.595
lowerback 5.52018 -3.46681 -3.85966
upperback -1.24994 -4.91903 -0.256596
thorax -4.08421 -2.35368 2.31926
lowerneck 6.34821 6.77218 -59.5956
upperneck 12.451 1.85811 45.5604
head 0.461424 -1.8344 38.2653
rclavicle 3.17931e-014 1.11319e-014
rhumerus -37.8712 22.2342 -84.5788
rradius 115.458
rwrist 42.2575
rhand -55.322 -395.477
rfingers 7.12502
rthumb -27.6881 296.541
lclavicle 3.17931e-014 1.11319e-014
lhumerus -29.9688 -28.334 92.5471
lradius 69.9002
lwrist 12.3827
lhand -23.9887 13.8957
lfingers 7.12502
lthumb 2.48825 43.861
rfemur -1.09028 28.8938 27.2086
rtibia 30.2894
rfoot -11.9694 -1.42707
rtoes -9.61814
lfemur -8.71508 -0.738093 -17.9388
ltibia 31.208
lfoot -16.0617 12.2045
ltoes 3.30023
801
root 0.778539 34.3407 -4.1964 -181.475 -23.2315 183.571
lowerback 5.62311 -3.56932 -3.98967
upperback -1.16155 -5.06207 -0.166171
thorax -4.02183 -2.42259 2.49864
lowerneck 5.54828 6.5059 -59.5834
upperneck 12.7735 2.0125 45.4709
head 0.621037 -1.69079 38.0079
rclavicle 7.15749e-014 -1.03368e-014
rhumerus -37.6989 21.3991 -83.7746
rradius 115.316
rwrist 42.0682
rhand -55.3031 -381.781
rfingers 7.12502
rthumb -27.6701 310.234
lclavicle 7.15749e-014 -1.03368e-014
lhumerus -29.7898 -28.311 92.6056
lradius 69.8507
lwrist 13.0422
lhand -25.1985 14.2632
lfingers 7.12502
lthumb 1.31986 44.2389
rfemur -1.21387 28.9238 26.9782
rtibia 30.4392
rfoot -11.9322 -0.957397
rtoes -9.36407
lfemur -8.57226 -0.517563 -18.0762
ltibia 31.211
lfoot -16.1447 12.4111
ltoes 3.15154
802
root 0.750163 34.3379 -4.17911 -181.455 -22.6532 183.503
lowerback 4.44871 -3.80424 -3.24772
upperback -0.345854 -5.28944 -0.891605
thorax -2.63562 -2.60348 1.23668
lowerneck 4.66231 6.14115 -58.5854
upperneck 12.5856 2.19371 45.5314
head 0.601239 -1.43579 37.8228
rclavicle 1.27688e-014 -4.6118e-014
rhumerus -36.5709 19.9156 -84.1172
rradius 114.799
rwrist 42.0421
rhand -55.1165 -368.174
rfingers 7.12502
rthumb -27.4916 323.813
lclavicle 1.27688e-014 -4.6118e-014
lhumerus -28.5761 -28.8586 90.9201
lradius 69.7666
lwrist 14.0749
lhand -26.2343 14.9566
lfingers 7.12502
lthumb 0.319455 44.9361
rfemur -1.35167 28.8774 26.6883
rtibia 30.5417
rfoot -11.8734 -0.525161
rtoes -9.2112
lfemur -8.51779 -0.272591 -18.2697
ltibia 31.2495
lfoot -16.1328 12.7647
ltoes 2.07362
803
root 0.717351 34.3381 -4.17421 -181.269 -21.7099 183.641
lowerback 1.11331 -4.03585 -1.68626
upperback 1.69804 -5.44163 -2.1458
thorax 1.06642 -2.75573 -1.24808
lowerneck 3.15764 5.32504 -57.0757
upperneck 11.5334 2.27298 45.6805
head 0.548702 -1.07327 37.8304
rclavicle -5.71506e-015 5.725e-014
rhumerus -33.2836 18.2413 -84.9412
rradius 113.882
rwrist 41.8681
rhand -54.6272 -355.386
rfingers 7.12502
rthumb -27.0235 336.527
lclavicle -5.71506e-015 5.725e-014
lhumerus -25.3155 -29.4354 87.0653
lradius 69.725
lwrist 15.3872
lhand -26.9931 15.5987
lfingers 7.12502
lthumb -0.413444 45.5781
rfemur -1.77074 29.063 26.493
rtibia 30.6447
rfoot -11.7793 -0.0735298
rtoes -9.82305
lfemur -8.6318 0.432217 -18.2183
ltibia 31.2739
lfoot -16.1688 13.1096
ltoes -0.091152
804
root 0.689775 34.3393 -4.15619 -181.295 -21.1383 183.779
lowerback 0.875877 -4.13574 -1.32973
upperback 1.995 -5.56987 -2.30459
thorax 1.45342 -2.81942 -1.64019
lowerneck 2.30572 5.00067 -56.6551
upperneck 11.6314 2.34751 45.6367
head 0.71184 -0.947396 37.5957
rclavicle 3.44394e-014 8.26944e-014
rhumerus -32.6008 17.1352 -84.6305
rradius 113.346
rwrist 41.7909
rhand -60.0903 -360.796
rfingers 7.12502
rthumb -32.2378 332.046
lclavicle 3.44394e-014 8.26944e-014
lhumerus -24.9096 -29.2086 86.508
lradius 69.7517
lwrist 16.5171
lhand -27.4644 15.628
lfingers 7.12502
lthumb -0.868618 45.606
rfemur -1.96229 29.0824 26.4046
rtibia 30.7275
rfoot -11.6255 0.282483
rtoes -10.3553
lfemur -8.62995 0.626146 -18.2153
ltibia 31.3091
lfoot -16.2552 13.5451
ltoes -1.30846
805
root 0.664347 34.3401 -4.13798 -181.246 -20.4987 183.606
lowerback 0.829259 -4.19737 -1.36521
upperback 2.14776 -5.65803 -2.48935
thorax 1.61985 -2.86787 -1.82148
lowerneck 1.55954 4.77372 -56.2745
upperneck 11.87 2.45494 45.5877
head 0.867046 -0.829889 37.3356
rclavicle -2.94201e-014 4.6118e-014
rhumerus -32.2713 16.1982 -84.3767
rradius 112.912
rwrist 41.7906
rhand -62.4287 -367.458
rfingers 7.12502
rthumb -34.4608 325.862
lclavicle -2.94201e-014 4.6118e-014
lhumerus -24.7362 -28.9044 86.1272
lradius 69.8173
lwrist 17.8024
lhand -27.3381 15.4576
lfingers 7.12502
lthumb -0.746671 45.436
rfemur -2.13976 29.1539 26.0076
rtibia 30.8021
rfoot -11.5067 0.754397
rtoes -10.3354
lfemur -8.59059 0.88871 -18.5143
ltibia 31.3678
lfoot -16.4049 13.8861
ltoes -1.38476
806
root 0.636382 34.3388 -4.12322 -181.218 -19.9022 183.539
lowerback 0.76177 -4.28631 -1.37113
upperback 2.26457 -5.7784 -2.57114
thorax 1.76756 -2.93033 -1.91458
lowerneck 0.819689 4.57548 -56.0089
upperneck 12.1563 2.59744 45.5294
head 1.01206 -0.695824 37.0857
rclavicle -1.37957e-013 -3.18055e-015
rhumerus -32.0332 15.3617 -84.1342
rradius 112.435
rwrist 41.5915
rhand -62.9638 -368.78
rfingers 7.12502
rthumb -34.9686 324.657
lclavicle -1.37957e-013 -3.18055e-015
lhumerus -24.6126 -28.4478 85.8633
lradius 69.7883
lwrist 18.9067
lhand -25.3466 15.1324
lfingers 7.12502
lthumb 1.17684 45.1089
rfemur -2.29842 29.1898 25.724
rtibia 30.8938
rfoot -11.5565 1.18428
rtoes -10.1184
lfemur -8.51798 1.22947 -18.6909
ltibia 31.3825
lfoot -16.7119 14.0243
ltoes -1.03884
